<?xml version="1.0" encoding="UTF-8" standalone="no"?>
<svg width="20px" height="20px" viewBox="0 0 46 46" version="1.1" xmlns="http://www.w3.org/2000/svg" xmlns:xlink="http://www.w3.org/1999/xlink">
    <g stroke="none" stroke-width="1" fill="none" fill-rule="evenodd">
        <path d="M31.6395601,23.1428571 C31.6395601,22.0357143 31.5440415,20.9285714 31.3529972,19.8571429 L23,19.8571429 L23,24.6071429 L27.8423931,24.6071429 C27.6204185,25.9285714 26.909396,27.0714286 25.8350083,27.8571429 L25.8350083,30.4642857 L29.3941309,30.4642857 C31.1485919,28.8571429 31.6395601,26.2857143 31.6395601,23.1428571 L31.6395601,23.1428571 Z" fill="#4285F4"></path>
        <path d="M23,32 C26.0557726,32 28.6335564,31.0714286 30.3880207,29.4642857 L26.8288948,26.8571429 C25.9223538,27.4642857 24.6524894,27.8214286 23,27.8214286 C20.0487099,27.8214286 17.5664597,25.9285714 16.6599186,23.3214286 L13,23.3214286 L13,25.9642857 C14.7544609,29.5357143 18.5685379,32 23,32 L23,32 Z" fill="#34A853"></path>
        <path d="M16.6599186,23.3214286 C16.4699213,22.5357143 16.3744026,21.7142857 16.3744026,20.8571429 C16.3744026,20 16.4699213,19.1785714 16.6599186,18.3928571 L16.6599186,15.75 L13,15.75 C12.3440332,16.6785714 12,20.8571429 12,20.8571429 C12,20.8571429 12.3440332,25.0357143 13,25.9642857 L16.6599186,23.3214286 L16.6599186,23.3214286 Z" fill="#FBBC05"></path>
        <path d="M23,13.8928571 C24.4319037,13.8928571 25.7017682,14.3928571 26.7026992,15.3214286 L29.8850958,12.2142857 C28.1306382,10.6071429 26.0557726,9.71428571 23,9.71428571 C18.5685379,9.71428571 14.7544609,12.1785714 13,15.75 L16.6599186,18.3928571 C17.5664597,15.7857143 20.0487099,13.8928571 23,13.8928571 L23,13.8928571 Z" fill="#EA4335"></path>
    </g>
</svg>